<svg version="1.1" id="Ebene_1" xmlns="http://www.w3.org/2000/svg" x="0" y="0" width="332.2" height="115.4" xml:space="preserve"><style>.st3{fill:#fd551d}.st4{fill:#51d000}.st5{fill:#50c5eb}</style><g id="XMLID_2_"><path class="st3" d="M220.1 1v85.4h-6.7V19.2l-26 67.2h-4.6L157 19.2v67.2h-6.7V1h6.7l28.2 73.3L213.4 1z"/><path class="st4" d="M135.5 44.7v33.8a34.3 34.3 0 01-24 8.9c-15.2 0-26.6-10.7-26.6-29.9V29.4C84.9 10.7 96.5 0 111.8 0c8.8 0 15 2.2 21.4 6.8l-1.5 5.8a29.9 29.9 0 00-19.1-6.3c-12.1 0-20.8 8.6-20.8 22.9v28.5c0 14.8 7.9 23.4 19.9 23.4 7 0 12-2 17.2-6.5V51h-15v-6.3h21.6z"/><path class="st5" d="M70.2 1v85.4h-6.7V19.2l-26 67.2h-4.6L7.1 19.2v67.2H.4V1h6.7l28.2 73.3L63.5 1z"/></g><g id="XMLID_1_"><path class="st3" d="M332.1 63.7c.5 2.1-.8 3.8-2.8 3.7h-16.5a67.7 67.7 0 00-6.6-16 18 18 0 00-11.5-8.1l.5-.9c3.8-5.4 10.4-5.2 10.4-5.2h7.1s8.9-.3 12.1 5.5c2.3 3 5.9 15.1 7.1 20.2l.2.8zM310.1 2.4a14.7 14.7 0 11-5.8 28.2 23.2 23.2 0 00-2.8-25.4c2.4-1.8 5.4-2.8 8.6-2.8z"/><path class="st4" d="M312 81.4c.8 2.8-1 5-3.9 5.2h-49.8c-2.9 0-4.6-2.3-3.9-5l.4-1.9c1.8-7.5 5.9-22.3 8.6-26.1 5-7.2 13.7-6.9 13.7-6.9h9.4s11.9-.4 16 7.2c3 3.8 7.7 19.8 9.3 26.5l.2 1z"/><circle class="st4" cx="283.2" cy="20.1" r="19.3"/><path class="st5" d="M271 42.7l.3.4c-3.6 1-8.1 3.2-11.4 7.9-2.1 3-4.5 10.2-6.1 16.4h-16.2c-2.2 0-3.5-1.7-3-3.8l.3-1.4a95.6 95.6 0 016.5-19.8c3.8-5.4 10.4-5.2 10.4-5.2h7.1s8.9-.3 12.1 5.5zM256.3 2.4c3.2 0 6.2 1 8.6 2.8a23.3 23.3 0 00-2.8 25.4 14.6 14.6 0 01-20.5-13.5c0-8.1 6.6-14.7 14.7-14.7z"/></g><g id="XMLID_4_"><path fill="none" d="M.4 95.3h331.8v22.1H.4z"/><path class="st4" d="M11.5 109.6c-1.9 0-3.4-.6-4.5-1.9a7 7 0 01-1.7-4.8c0-2.2.6-3.9 1.7-5.2a6 6 0 014.8-1.9c1.8 0 3.3.6 4.4 1.9a7 7 0 011.7 4.8c0 2.2-.6 4-1.7 5.2s-2.7 1.9-4.7 1.9zm.1-12.4c-1.4 0-2.5.5-3.4 1.5-.8 1-1.3 2.4-1.3 4 0 1.7.5 3 1.3 4 .9 1 2 1.5 3.3 1.5 1.5 0 2.6-.5 3.5-1.5.8-1 1.2-2.2 1.2-4a6 6 0 00-1.2-4c-.8-1-2-1.5-3.4-1.5zM25 96.6a2 2 0 00-1-.2c-1 0-1.6.6-1.6 2v1.5h2.2v1.2h-2.2v8.3h-1.5V101h-1.7V100H21v-1.6c0-1 .3-1.8.8-2.4a3 3 0 012.2-.8l1 .1v1.4zM31 96.6a2 2 0 00-1-.2c-1.1 0-1.7.6-1.7 2v1.5h2.3v1.2h-2.3v8.3h-1.5V101h-1.6V100h1.6v-1.6c0-1 .3-1.8.9-2.4a3 3 0 012.1-.8l1.1.1v1.4zM33 97.4a1 1 0 01-1-1c0-.2 0-.5.3-.7l.7-.2a1 1 0 110 2zm.7 12h-1.5v-9.5h1.5v9.5zM43.3 109a5 5 0 01-2.6.6c-1.4 0-2.5-.5-3.3-1.3-.8-1-1.3-2-1.3-3.5s.5-2.8 1.4-3.7c.9-1 2-1.5 3.6-1.5a5 5 0 012.2.5v1.6c-.7-.5-1.5-.8-2.3-.8a3 3 0 00-2.4 1 4 4 0 00-1 2.8c0 1.1.4 2 1 2.6a3 3 0 002.3 1c.9 0 1.6-.3 2.4-.8v1.4zM46.3 97.4a1 1 0 01-1-1l.3-.7.7-.2a1 1 0 110 2zm.8 12h-1.5v-9.5H47v9.5zM57 109.4h-1.6v-1.5a3.2 3.2 0 01-3 1.7c-.9 0-1.6-.3-2.1-.8-.6-.5-.8-1.1-.8-2 0-1.7 1-2.8 3.1-3l2.8-.5c0-1.6-.6-2.4-2-2.4-1 0-2 .4-3 1.2v-1.6c1-.6 2-.9 3.2-.9 2.2 0 3.4 1.2 3.4 3.6v6.2zm-1.6-4.9l-2.2.4c-.8 0-1.3.2-1.6.5-.4.2-.6.7-.6 1.3 0 .5.2.9.5 1.2.3.2.8.4 1.3.4.8 0 1.4-.3 2-.8.4-.5.6-1.2.6-2v-1zM61.4 109.4h-1.6V95.3h1.6v14zM79.4 109.4h-1.9l-2.2-3.8a8 8 0 00-.6-.9l-.6-.6a2 2 0 00-.6-.3l-.8-.1h-1.3v5.7h-1.6V96h4c.6 0 1.1.1 1.6.3.5.1 1 .3 1.3.6.4.3.6.7.9 1.1s.3 1 .3 1.6c0 .5-.1.9-.3 1.3a3.3 3.3 0 01-1.5 1.8l-1.2.5a2.8 2.8 0 011 .8l.5.6.5.8 2.5 4zm-8-12v4.9h2.1c.4 0 .8 0 1.1-.2l.9-.5c.3-.2.4-.5.5-.8.2-.3.2-.7.2-1a2 2 0 00-.7-1.7c-.4-.4-1-.6-2-.6h-2.1zM88.1 105h-6.7c0 1 .3 1.9.9 2.4a3 3 0 002.2.9c1 0 2-.4 3-1v1.4c-.9.6-2 .9-3.4.9a4 4 0 01-3.1-1.3c-.8-.9-1.2-2.1-1.2-3.7 0-1.4.4-2.6 1.3-3.6.8-1 1.9-1.4 3.1-1.4s2.2.4 2.9 1.2c.7.8 1 2 1 3.4v.8zm-1.5-1.3c0-.9-.3-1.6-.7-2-.4-.5-1-.8-1.7-.8s-1.4.3-1.9.8-.8 1.2-.9 2h5.2zM96.9 109a5 5 0 01-2.6.6c-1.4 0-2.5-.5-3.3-1.3-.8-1-1.2-2-1.2-3.5s.4-2.8 1.3-3.7c.9-1 2.1-1.5 3.6-1.5a5 5 0 012.2.5v1.6c-.7-.5-1.5-.8-2.3-.8a3 3 0 00-2.3 1 4 4 0 00-1 2.8c0 1.1.3 2 .9 2.6a3 3 0 002.3 1c.9 0 1.7-.3 2.4-.8v1.4zM104.1 101.4c-.2-.2-.6-.3-1.1-.3-.7 0-1.2.3-1.6.9-.5.6-.7 1.5-.7 2.5v4.9h-1.5v-9.5h1.5v2c.3-.8.6-1.3 1-1.7s1-.5 1.5-.5l1 .1v1.6zM113.5 109.4H112v-1.6a3.1 3.1 0 01-3 1.8c-2.3 0-3.4-1.4-3.4-4v-5.7h1.5v5.4c0 2 .8 3 2.3 3 .7 0 1.4-.3 1.8-.8.5-.6.8-1.3.8-2.2V100h1.5v9.5zM117.3 97.4a1 1 0 01-1-1c0-.2.1-.5.3-.7l.7-.2a1 1 0 110 2zm.8 12h-1.6v-9.5h1.6v9.5zM125.6 109.3a3 3 0 01-1.5.3c-1.6 0-2.5-1-2.5-2.8V101H120V100h1.6v-2.4l1.6-.5v2.9h2.4v1.3h-2.4v5.3c0 .6 0 1.1.3 1.4.2.2.6.4 1 .4s.8-.1 1-.3v1.3zM128.4 97.4a1 1 0 01-1-1c0-.2 0-.5.3-.7l.7-.2a1 1 0 110 2zm.7 12h-1.5v-9.5h1.5v9.5zM140 109.4h-1.4v-5.5c0-2-.8-3-2.3-3-.7 0-1.3.3-1.8.9-.5.5-.8 1.3-.8 2.1v5.5h-1.5v-9.5h1.5v1.5a3.4 3.4 0 013.2-1.8c1 0 1.8.4 2.3 1 .6.7.9 1.7.9 3v5.8zM151 108.6c0 3.5-1.6 5.2-5 5.2-1.1 0-2.2-.2-3-.6v-1.6c1 .6 2 1 3 1 2.4 0 3.5-1.3 3.5-3.8v-1a3.6 3.6 0 01-3.3 1.8c-1.2 0-2.1-.4-2.8-1.3a5 5 0 01-1.1-3.4 6 6 0 011.2-3.8c.7-1 1.8-1.5 3.1-1.5s2.3.5 2.9 1.6v-1.3h1.5v8.7zm-1.5-3.5v-1.4a2.7 2.7 0 00-2.6-2.8c-1 0-1.7.4-2.3 1-.5.7-.8 1.7-.8 2.9 0 1 .3 2 .8 2.5.5.7 1.2 1 2 1 .9 0 1.6-.3 2.1-1 .6-.5.8-1.3.8-2.2zM159.5 109.4V96h3.7c4.7 0 7 2.2 7 6.5 0 2-.6 3.7-2 5a7.2 7.2 0 01-5.1 1.8h-3.6zm1.6-12V108h2c1.7 0 3-.4 4-1.4 1-.9 1.5-2.2 1.5-4 0-3.3-1.8-5-5.4-5H161zM180.3 105h-6.7c0 1 .3 1.9.8 2.4a3 3 0 002.3.9c1 0 2-.4 3-1v1.4c-.9.6-2 .9-3.4.9a4 4 0 01-3.1-1.3c-.8-.9-1.2-2.1-1.2-3.7 0-1.4.4-2.6 1.3-3.6s1.8-1.4 3-1.4 2.3.4 3 1.2c.6.8 1 2 1 3.4v.8zm-1.6-1.3c0-.9-.2-1.6-.6-2-.4-.5-1-.8-1.7-.8-.8 0-1.4.3-1.9.8s-.8 1.2-.9 2h5.1zM184.1 108v5.7h-1.5V100h1.5v1.6a3.6 3.6 0 013.3-1.9c1.3 0 2.2.5 2.9 1.3.7.9 1 2 1 3.4 0 1.6-.4 2.9-1.1 3.8-.8 1-1.9 1.5-3.2 1.5-1.2 0-2.2-.6-2.9-1.6zm0-3.9v1.4c0 .8.3 1.4.8 2 .5.5 1.1.8 2 .8.8 0 1.6-.4 2-1s.9-1.8.9-3c0-1-.3-1.9-.8-2.5-.5-.6-1.1-.9-2-.9-.8 0-1.5.3-2 1-.6.5-.9 1.3-.9 2.2zM200.3 109.4h-1.5v-1.5a3.2 3.2 0 01-3 1.7c-1 0-1.7-.3-2.2-.8-.5-.5-.8-1.1-.8-2 0-1.7 1-2.8 3.1-3l2.9-.5c0-1.6-.7-2.4-2-2.4-1.1 0-2.1.4-3 1.2v-1.6c.9-.6 2-.9 3.2-.9 2.2 0 3.3 1.2 3.3 3.6v6.2zm-1.5-4.9l-2.3.4c-.7 0-1.2.2-1.6.5-.4.2-.5.7-.5 1.3 0 .5.1.9.5 1.2s.7.4 1.3.4c.7 0 1.4-.3 1.8-.8.5-.5.8-1.2.8-2v-1zM208.1 101.4c-.2-.2-.6-.3-1.1-.3-.7 0-1.2.3-1.6.9-.5.6-.7 1.5-.7 2.5v4.9h-1.5v-9.5h1.5v2c.3-.8.6-1.3 1-1.7s1-.5 1.5-.5l1 .1v1.6zM214.7 109.3a3 3 0 01-1.4.3c-1.6 0-2.5-1-2.5-2.8V101h-1.6V100h1.6v-2.4l1.5-.5v2.9h2.4v1.3h-2.4v5.3c0 .6.1 1.1.4 1.4s.5.4 1 .4c.4 0 .8-.1 1-.3v1.3zM230.3 109.4h-1.6v-5.5c0-1-.1-1.8-.5-2.3-.3-.5-.8-.7-1.6-.7a2 2 0 00-1.6.9c-.5.6-.7 1.3-.7 2.1v5.5h-1.5v-5.7c0-1.9-.8-2.8-2.2-2.8-.7 0-1.2.3-1.7.8s-.6 1.3-.6 2.2v5.5h-1.5v-9.5h1.5v1.5a3.2 3.2 0 013-1.8 2.7 2.7 0 012.7 2c.7-1.3 1.7-2 3.1-2 2.1 0 3.2 1.3 3.2 3.9v5.9zM240.8 105H234c0 1 .3 1.9.8 2.4a3 3 0 002.3.9c1 0 2-.4 3-1v1.4c-1 .6-2 .9-3.4.9a4 4 0 01-3.2-1.3c-.7-.9-1.1-2.1-1.1-3.7 0-1.4.4-2.6 1.2-3.6s2-1.4 3.2-1.4 2.2.4 2.8 1.2c.7.8 1 2 1 3.4v.8zm-1.6-1.3c0-.9-.2-1.6-.6-2-.4-.5-1-.8-1.8-.8-.7 0-1.3.3-1.8.8s-.8 1.2-1 2h5.2zM251 109.4h-1.6v-5.5c0-2-.7-3-2.2-3-.7 0-1.4.3-1.9.9-.5.5-.7 1.3-.7 2.1v5.5H243v-9.5h1.5v1.5a3.4 3.4 0 013.1-1.8c1 0 1.9.4 2.4 1 .6.7.9 1.7.9 3v5.8zM258.2 109.3a3 3 0 01-1.4.3c-1.7 0-2.5-1-2.5-2.8V101h-1.6V100h1.6v-2.4l1.5-.5v2.9h2.4v1.3h-2.4v5.3c0 .6.1 1.1.4 1.4s.5.4 1 .4c.4 0 .7-.1 1-.3v1.3zM275.4 104c0 3.7-1.7 5.6-5 5.6s-4.9-1.8-4.9-5.4V96h1.6v8c0 2.8 1.1 4.2 3.4 4.2 2.2 0 3.3-1.3 3.3-4V96h1.6v8zM286.4 109.4h-2.1l-4.2-4.6v4.6h-1.6V95.3h1.5v8.9l4-4.4h2l-4.4 4.6 4.8 5zM293 101.4c-.4-.2-.7-.3-1.2-.3-.7 0-1.2.3-1.7.9-.4.6-.6 1.5-.6 2.5v4.9H288v-9.5h1.5v2c.2-.8.6-1.3 1-1.7s1-.5 1.5-.5l1 .1v1.6zM301.4 109.4h-1.6v-1.5a3.2 3.2 0 01-3 1.7c-.9 0-1.6-.3-2.1-.8-.6-.5-.8-1.1-.8-2 0-1.7 1-2.8 3.1-3l2.8-.5c0-1.6-.6-2.4-2-2.4-1 0-2 .4-3 1.2v-1.6c1-.6 2-.9 3.2-.9 2.2 0 3.4 1.2 3.4 3.6v6.2zm-1.6-4.9l-2.2.4c-.8 0-1.3.2-1.6.5-.4.2-.6.7-.6 1.3 0 .5.2.9.5 1.2s.8.4 1.3.4c.8 0 1.4-.3 2-.8.4-.5.6-1.2.6-2v-1zM305 97.4a1 1 0 01-1-1c0-.2.1-.5.3-.7l.7-.2a1 1 0 110 2zm.8 12h-1.6v-9.5h1.6v9.5zM316.7 109.4h-1.5v-5.5c0-2-.7-3-2.2-3-.8 0-1.4.3-1.9.9-.5.5-.7 1.3-.7 2.1v5.5h-1.6v-9.5h1.6v1.5a3.4 3.4 0 013.1-1.8c1 0 1.8.4 2.4 1 .5.7.8 1.7.8 3v5.8zM327.2 105h-6.7c0 1 .3 1.9.9 2.4a3 3 0 002.2.9c1 0 2-.4 3-1v1.4c-.9.6-2 .9-3.4.9a4 4 0 01-3.1-1.3c-.8-.9-1.2-2.1-1.2-3.7 0-1.4.5-2.6 1.3-3.6s1.9-1.4 3.1-1.4 2.2.4 2.9 1.2c.7.8 1 2 1 3.4v.8zm-1.5-1.3c0-.9-.3-1.6-.7-2-.4-.5-1-.8-1.7-.8s-1.3.3-1.8.8-.9 1.2-1 2h5.2z"/></g></svg>